<?xml version="1.0" standalone="no"?>
<!DOCTYPE svg PUBLIC "-//W3C//DTD SVG 20010904//EN"
 "http://www.w3.org/TR/2001/REC-SVG-20010904/DTD/svg10.dtd">
<svg version="1.0" xmlns="http://www.w3.org/2000/svg"
 width="1300.000000pt" height="1392.000000pt" viewBox="0 0 1300.000000 1392.000000"
 preserveAspectRatio="xMidYMid meet">

<g transform="translate(0.000000,1392.000000) scale(0.100000,-0.100000)"
fill="#000000" stroke="none">
<path d="M5790 12549 c-952 -98 -1745 -424 -2506 -1031 -282 -224 -603 -540
-894 -878 -36 -41 -67 -77 -70 -80 -3 -3 -58 -66 -123 -142 -197 -229 -386
-387 -622 -518 -170 -95 -299 -195 -448 -347 -145 -148 -177 -202 -177 -296 0
-196 245 -430 705 -674 83 -44 175 -97 205 -117 30 -20 93 -55 139 -77 l83
-41 -40 -42 c-267 -278 -458 -701 -524 -1161 -19 -135 -16 -492 6 -640 36
-243 116 -505 222 -723 l65 -134 -16 -161 c-50 -542 -90 -1288 -103 -1957 -15
-805 -1 -3402 20 -3468 10 -34 50 -62 88 -62 12 0 35 14 52 31 l31 31 -7 591
c-11 978 -15 2581 -6 2922 18 697 75 1748 98 1808 6 14 22 0 82 -74 156 -190
378 -374 540 -447 234 -104 506 -150 835 -139 407 13 768 104 1107 279 345
177 638 447 835 770 157 257 259 549 298 853 21 158 20 431 0 593 -93 717
-528 1318 -1146 1581 -239 102 -474 150 -769 158 -226 7 -229 1 55 85 549 160
1160 266 1795 310 231 16 945 16 1325 0 438 -19 1072 -73 1320 -112 33 -5 119
-19 192 -30 356 -55 829 -173 1040 -259 l48 -20 -110 6 c-317 17 -709 -61
-989 -196 -98 -47 -269 -155 -351 -220 -78 -63 -238 -227 -307 -316 -447 -575
-559 -1423 -282 -2125 215 -542 619 -950 1174 -1185 495 -210 1134 -259 1595
-123 211 62 378 165 563 349 56 56 104 100 106 98 2 -2 11 -148 20 -324 9
-176 18 -358 21 -405 3 -47 12 -452 21 -900 8 -448 19 -972 24 -1165 17 -755
3 -1877 -29 -2240 -10 -115 -1 -151 45 -172 41 -20 78 -11 105 27 39 53 61
523 63 1320 1 547 -11 1617 -19 1630 -1 3 -5 217 -9 475 -11 766 -29 1266 -62
1745 l-15 226 62 99 c272 432 404 979 360 1485 -42 475 -219 904 -511 1237
l-80 92 112 58 c283 144 509 335 590 498 60 119 96 359 68 452 -5 18 -15 50
-21 71 -35 118 -118 230 -235 314 -43 32 -133 97 -199 144 -298 215 -496 397
-810 742 -154 169 -606 607 -855 828 -799 709 -1332 983 -2080 1069 -416 48
-1336 61 -1700 24z m1550 -43 c575 -57 936 -172 1355 -431 366 -226 683 -486
1256 -1032 252 -239 367 -357 592 -605 197 -217 409 -401 692 -602 222 -157
267 -196 318 -272 93 -141 118 -299 78 -484 -39 -177 -123 -300 -295 -434 -82
-64 -253 -176 -268 -176 -5 0 33 42 84 93 277 275 362 549 247 791 -48 102
-149 206 -330 338 -138 100 -234 189 -769 713 -650 636 -1155 1014 -1735 1300
-553 273 -1163 437 -1810 486 -193 15 -708 15 -895 0 -1042 -82 -1811 -402
-2540 -1057 -147 -132 -425 -412 -712 -719 -377 -403 -588 -599 -839 -775
-193 -136 -311 -276 -353 -419 -46 -158 11 -342 162 -518 24 -29 41 -53 36
-53 -4 0 -40 19 -78 42 -252 148 -447 318 -504 439 -63 132 -40 218 93 359
167 175 265 255 443 359 255 149 467 314 593 462 614 715 898 995 1339 1321
392 290 824 517 1265 664 366 122 658 181 1120 228 22 2 321 3 665 1 491 -2
660 -6 790 -19z m-1715 -751 c92 -45 138 -133 134 -259 l-2 -70 80 -65 c45
-36 129 -106 187 -154 96 -79 312 -227 333 -227 5 0 81 41 168 91 88 50 216
119 285 154 69 34 138 75 153 91 32 31 57 82 82 164 62 202 136 280 265 280
73 -1 170 -72 186 -136 9 -34 -1 -104 -24 -186 -11 -37 -17 -69 -15 -72 3 -2
17 0 33 4 62 18 168 -27 233 -99 61 -68 67 -134 19 -228 -42 -80 -137 -133
-241 -133 -48 0 -172 29 -208 48 -18 10 -54 -3 -249 -89 -267 -117 -314 -140
-314 -150 0 -5 51 -42 114 -83 63 -41 150 -102 193 -136 128 -102 136 -104
358 -102 152 2 200 -1 241 -14 138 -43 185 -165 101 -261 -46 -52 -97 -71
-227 -83 -63 -6 -116 -13 -119 -15 -2 -3 4 -14 14 -25 43 -48 8 -189 -63 -251
-52 -46 -92 -59 -176 -59 -189 0 -293 106 -284 291 l3 72 -185 157 c-183 155
-355 280 -385 280 -8 0 -81 -36 -163 -81 -81 -44 -211 -111 -289 -149 -204
-101 -213 -110 -273 -293 -33 -103 -69 -159 -133 -211 -31 -25 -49 -31 -102
-34 -86 -6 -145 22 -186 86 -36 57 -36 89 -4 207 14 49 25 91 25 92 0 1 -24 1
-53 0 -69 -1 -150 37 -205 97 -72 78 -75 159 -12 251 78 114 215 142 395 80
l71 -25 109 46 c341 142 445 188 445 198 0 2 -51 37 -112 76 -62 40 -154 103
-203 140 -149 111 -130 105 -360 102 -216 -2 -265 5 -330 49 -45 31 -65 68
-65 121 0 99 84 171 213 182 177 16 185 19 150 58 -25 28 -20 109 12 173 46
96 129 138 253 131 53 -3 89 -12 127 -31z m-2930 -1910 c165 -43 329 -165 505
-375 l40 -47 -142 -162 -141 -162 -29 28 c-44 42 -142 192 -183 280 -59 129
-58 128 -92 131 -38 4 -58 -25 -50 -68 9 -40 79 -185 126 -258 23 -34 41 -65
41 -67 0 -3 -24 -5 -53 -5 -29 0 -107 -7 -172 -15 -66 -8 -123 -15 -127 -15
-4 0 -15 -11 -24 -25 -15 -23 -15 -27 1 -51 l17 -27 102 9 c135 12 295 10 329
-4 l28 -12 -147 -167 c-81 -93 -150 -169 -154 -171 -10 -4 -144 139 -221 235
-179 225 -269 459 -241 623 30 168 132 281 295 325 70 19 219 19 292 0z m7860
-103 c120 -57 200 -163 225 -300 26 -148 -42 -361 -186 -578 -69 -103 -187
-249 -202 -249 -6 0 -86 65 -176 145 -146 128 -163 147 -149 158 35 25 93 34
268 38 152 4 182 7 193 21 16 22 15 35 -2 59 -12 15 -30 20 -100 24 -48 3
-132 2 -189 -1 -56 -3 -103 -5 -105 -3 -2 1 14 35 36 76 43 77 102 235 102
271 0 28 -28 57 -55 57 -30 0 -48 -25 -69 -94 -28 -92 -81 -203 -139 -288 -28
-43 -54 -78 -57 -78 -3 0 -57 46 -120 103 -64 56 -137 121 -164 144 l-48 42
91 115 c165 207 287 303 451 353 64 20 93 23 200 20 117 -2 129 -5 195 -35z
m-6669 -972 c315 -31 592 -127 834 -290 487 -329 780 -915 780 -1560 0 -522
-193 -1014 -538 -1372 -340 -353 -775 -557 -1342 -629 -138 -18 -443 -15 -570
5 -223 35 -407 103 -549 203 -93 66 -283 259 -373 380 -374 499 -524 1154
-403 1760 53 261 171 544 313 743 121 171 366 400 500 466 29 15 55 31 59 37
11 18 207 105 328 145 166 56 358 93 595 115 81 8 264 6 366 -3z m5857 -49
c146 -26 298 -64 384 -96 81 -31 197 -103 241 -150 19 -19 40 -35 48 -35 27 0
210 -146 231 -185 10 -17 14 -18 52 -5 l42 13 50 -49 c187 -182 349 -449 440
-724 151 -463 139 -973 -35 -1452 -52 -143 -165 -359 -259 -494 -92 -133 -288
-342 -400 -428 -130 -100 -313 -172 -532 -212 -126 -23 -491 -26 -635 -6 -405
58 -723 174 -1020 375 -125 85 -364 318 -455 445 -370 513 -473 1193 -273
1812 212 659 721 1094 1408 1204 143 23 554 16 713 -13z"/>
<path d="M2505 7295 c-156 -44 -293 -152 -356 -281 -31 -63 -34 -76 -34 -164
0 -137 45 -240 147 -338 109 -105 215 -147 356 -140 110 6 166 31 248 113 110
109 171 277 161 445 -10 163 -77 277 -201 340 -63 32 -76 35 -170 37 -64 1
-119 -3 -151 -12z m-10 -169 c82 -35 99 -141 31 -203 -30 -27 -44 -33 -82 -33
-114 0 -169 124 -92 208 41 43 85 52 143 28z"/>
<path d="M10178 7964 c-125 -30 -268 -127 -338 -229 -138 -201 -60 -474 166
-576 185 -84 417 -50 544 81 114 117 169 320 125 466 -62 210 -265 315 -497
258z m-8 -99 c55 -28 76 -105 46 -164 -41 -78 -153 -88 -211 -19 -24 28 -27
39 -23 87 4 45 10 59 37 83 25 22 41 28 77 28 25 0 58 -7 74 -15z"/>
<path d="M6305 6379 c-182 -24 -353 -97 -435 -186 -63 -69 -88 -143 -72 -212
10 -42 9 -47 -11 -61 -111 -77 -219 -201 -280 -325 -59 -118 -79 -190 -84
-306 -5 -92 -2 -116 16 -172 27 -80 64 -133 131 -186 78 -61 146 -84 270 -87
l105 -4 7 -117 c3 -65 14 -144 22 -176 46 -168 145 -271 302 -312 98 -26 341
-18 452 14 82 24 154 86 197 170 31 61 65 222 77 365 l11 141 106 0 c94 0 112
3 163 27 168 78 259 260 230 458 -32 224 -217 470 -424 565 -53 24 -57 28 -52
54 4 16 -1 55 -11 86 -40 138 -208 231 -480 264 -101 12 -140 12 -240 0z m732
-579 c115 -66 229 -201 275 -326 32 -87 31 -194 -3 -259 -58 -114 -153 -138
-359 -90 -215 49 -265 56 -385 57 -152 2 -240 -16 -460 -94 -146 -52 -181 -61
-245 -62 -164 -2 -260 84 -260 234 1 167 124 394 270 495 l39 27 49 -43 c69
-61 147 -106 249 -142 82 -29 97 -31 223 -31 115 0 145 3 200 23 95 33 200
102 266 175 33 36 66 65 74 65 8 1 38 -13 67 -29z m-283 -815 c38 -8 71 -17
74 -20 10 -10 -17 -308 -33 -370 -36 -138 -75 -176 -199 -190 l-59 -7 7 59 c3
32 -1 132 -9 223 -8 91 -18 200 -22 243 l-6 77 89 0 c49 0 120 -7 158 -15z
m-351 -80 c2 -38 12 -141 22 -228 13 -114 15 -175 9 -220 l-9 -62 -40 3 c-184
14 -255 127 -255 408 l0 101 98 31 c150 48 157 50 163 43 4 -3 9 -37 12 -76z"/>
<path d="M6812 3850 c-180 -33 -398 -156 -432 -245 -13 -34 -2 -79 24 -103 11
-10 111 -74 221 -142 110 -68 205 -128 212 -134 10 -9 -17 -60 -113 -220 -68
-116 -126 -212 -129 -214 -2 -2 -99 32 -215 77 -116 44 -225 81 -242 81 -17 0
-60 -13 -95 -30 -34 -16 -67 -30 -72 -30 -5 0 -18 -11 -29 -25 -29 -37 -35
-117 -17 -229 30 -186 79 -292 185 -397 124 -123 273 -175 473 -167 119 6 195
27 320 90 32 16 63 25 70 22 7 -4 155 -149 330 -323 l317 -315 0 -72 c0 -93
32 -190 93 -281 112 -168 272 -264 503 -301 57 -9 104 -21 104 -27 0 -5 125
-133 277 -284 193 -189 292 -280 323 -295 36 -17 64 -21 140 -21 125 0 170 21
315 149 185 162 193 171 230 250 49 103 62 175 43 246 -8 30 -17 62 -19 70 -5
18 94 27 298 29 172 1 170 0 182 249 16 356 -51 619 -227 887 -65 98 -221 255
-255 255 -14 0 -141 -29 -284 -64 -142 -35 -301 -69 -353 -76 -194 -23 -477
-83 -574 -120 -28 -10 -33 -8 -95 53 -36 35 -201 187 -366 337 -165 150 -324
295 -352 321 -58 53 -58 52 -42 130 15 77 12 285 -6 371 -30 142 -113 281
-220 366 -134 106 -355 162 -523 132z m228 -151 c185 -42 331 -196 385 -404
18 -71 20 -256 4 -355 -10 -60 -10 -76 5 -115 10 -24 30 -54 44 -66 56 -43
742 -672 742 -680 0 -4 -10 -11 -22 -15 -33 -10 -238 -104 -252 -115 -6 -5
-51 -38 -100 -73 -70 -51 -100 -81 -144 -145 l-56 -81 -316 315 c-232 231
-323 315 -341 316 -49 2 -66 -3 -159 -46 -161 -75 -261 -90 -402 -61 -100 22
-174 62 -248 136 -103 102 -152 223 -166 405 l-7 88 24 -6 c13 -3 140 -60 283
-127 142 -66 261 -120 266 -120 7 0 404 642 415 672 4 9 -77 65 -255 177 -143
90 -259 169 -257 175 6 18 162 92 239 114 82 23 242 29 318 11z m2631 -1540
c145 -153 254 -381 290 -604 11 -74 16 -351 6 -362 -3 -2 -85 -8 -183 -13
-225 -12 -394 -30 -779 -84 -444 -63 -672 -65 -875 -9 -136 38 -258 130 -330
249 -42 70 -52 163 -25 228 93 218 625 448 1210 521 66 9 226 42 355 74 129
33 243 60 253 60 11 1 45 -26 78 -60z m-195 -1221 c61 -73 71 -160 28 -246
-33 -66 -263 -284 -331 -314 -67 -29 -160 -28 -217 3 -25 13 -151 128 -282
257 l-238 232 110 2 c141 2 182 4 279 18 44 6 109 15 145 20 80 11 266 38 340
49 112 17 135 14 166 -21z"/>
<path d="M9486 1825 c-11 -8 -41 -15 -67 -15 -50 0 -65 -15 -54 -51 13 -41
121 -31 164 15 42 44 5 87 -43 51z"/>
<path d="M9150 1804 c-19 -7 -70 -13 -112 -13 -75 -1 -78 -2 -84 -27 -10 -40
8 -49 99 -49 89 1 177 30 177 59 0 47 -18 54 -80 30z"/>
<path d="M9220 1566 c-14 -14 -13 -41 3 -54 6 -5 44 -13 83 -17 59 -6 74 -4
87 10 20 20 21 26 5 47 -16 19 -161 31 -178 14z"/>
<path d="M3234 2198 c-146 -154 -259 -392 -298 -627 -30 -178 -9 -543 38 -654
21 -51 39 -57 131 -45 106 13 515 15 970 4 347 -8 379 -7 506 12 279 42 447
131 557 296 177 265 130 521 -127 695 -212 145 -591 245 -1016 271 -93 6 -271
24 -395 42 -337 47 -329 46 -366 6z m348 -172 c138 -20 294 -37 383 -40 524
-20 1026 -193 1126 -388 43 -84 16 -208 -69 -321 -150 -196 -430 -262 -1007
-238 -148 6 -331 14 -405 17 -74 3 -223 1 -330 -5 -107 -5 -196 -8 -198 -6
-25 24 -40 313 -23 438 16 122 54 246 106 352 54 109 139 225 165 225 10 0
123 -15 252 -34z"/>
<path d="M3720 1705 c-17 -21 -8 -48 20 -62 34 -17 191 -17 214 0 11 8 17 23
14 38 -3 24 -4 24 -88 21 -47 -2 -99 1 -117 7 -24 7 -35 6 -43 -4z"/>
<path d="M3415 1691 c-9 -28 3 -48 40 -65 75 -36 150 -7 129 49 -6 14 -14 16
-46 11 -25 -4 -48 -1 -68 9 -38 20 -47 19 -55 -4z"/>
<path d="M3641 1470 c-63 -10 -76 -20 -67 -55 l7 -27 72 7 c40 4 78 12 85 17
26 21 6 69 -27 67 -9 -1 -40 -5 -70 -9z"/>
</g>
</svg>
